<mxfile host="app.diagrams.net" modified="2024-05-22T21:22:23.353Z" agent="Mozilla/5.0 (Macintosh; Intel Mac OS X 10_15_7) AppleWebKit/537.36 (KHTML, like Gecko) Chrome/124.0.0.0 Safari/537.36" etag="00ACKbUzEHM0HlTEm4L4" version="24.4.6" type="device">
  <diagram name="Страница — 1" id="8O8csWwEiDoeq96SPpPa">
    <mxGraphModel dx="3215" dy="2749" grid="1" gridSize="10" guides="1" tooltips="1" connect="1" arrows="1" fold="1" page="1" pageScale="1" pageWidth="827" pageHeight="1169" math="0" shadow="0">
      <root>
        <mxCell id="0" />
        <mxCell id="1" parent="0" />
        <mxCell id="SK5lxeOH7nmWoqjXqFOp-6" style="edgeStyle=orthogonalEdgeStyle;rounded=0;orthogonalLoop=1;jettySize=auto;html=1;entryX=1;entryY=0.5;entryDx=0;entryDy=0;curved=1;" edge="1" parent="1" source="SK5lxeOH7nmWoqjXqFOp-1" target="SK5lxeOH7nmWoqjXqFOp-4">
          <mxGeometry relative="1" as="geometry" />
        </mxCell>
        <mxCell id="SK5lxeOH7nmWoqjXqFOp-1" value="Sam Adams" style="ellipse;whiteSpace=wrap;html=1;aspect=fixed;" vertex="1" parent="1">
          <mxGeometry x="430" y="40" width="80" height="80" as="geometry" />
        </mxCell>
        <mxCell id="SK5lxeOH7nmWoqjXqFOp-8" style="edgeStyle=orthogonalEdgeStyle;rounded=0;orthogonalLoop=1;jettySize=auto;html=1;entryX=0.5;entryY=0;entryDx=0;entryDy=0;curved=1;" edge="1" parent="1" source="SK5lxeOH7nmWoqjXqFOp-3" target="SK5lxeOH7nmWoqjXqFOp-7">
          <mxGeometry relative="1" as="geometry" />
        </mxCell>
        <mxCell id="SK5lxeOH7nmWoqjXqFOp-3" value="Mike Johnson" style="ellipse;whiteSpace=wrap;html=1;aspect=fixed;" vertex="1" parent="1">
          <mxGeometry x="540" y="130" width="80" height="80" as="geometry" />
        </mxCell>
        <mxCell id="SK5lxeOH7nmWoqjXqFOp-4" value="Athletics" style="whiteSpace=wrap;html=1;aspect=fixed;" vertex="1" parent="1">
          <mxGeometry x="270" y="80" width="80" height="80" as="geometry" />
        </mxCell>
        <mxCell id="SK5lxeOH7nmWoqjXqFOp-7" value="Gymnastics" style="whiteSpace=wrap;html=1;aspect=fixed;" vertex="1" parent="1">
          <mxGeometry x="660" y="210" width="80" height="80" as="geometry" />
        </mxCell>
        <mxCell id="SK5lxeOH7nmWoqjXqFOp-13" style="edgeStyle=orthogonalEdgeStyle;rounded=0;orthogonalLoop=1;jettySize=auto;html=1;entryX=0;entryY=0.5;entryDx=0;entryDy=0;curved=1;" edge="1" parent="1" source="SK5lxeOH7nmWoqjXqFOp-9" target="SK5lxeOH7nmWoqjXqFOp-12">
          <mxGeometry relative="1" as="geometry" />
        </mxCell>
        <mxCell id="SK5lxeOH7nmWoqjXqFOp-9" value="Emily Brown" style="ellipse;whiteSpace=wrap;html=1;aspect=fixed;" vertex="1" parent="1">
          <mxGeometry x="450" y="310" width="80" height="80" as="geometry" />
        </mxCell>
        <mxCell id="SK5lxeOH7nmWoqjXqFOp-14" style="edgeStyle=orthogonalEdgeStyle;rounded=0;orthogonalLoop=1;jettySize=auto;html=1;entryX=1;entryY=0.5;entryDx=0;entryDy=0;curved=1;" edge="1" parent="1" source="SK5lxeOH7nmWoqjXqFOp-10" target="SK5lxeOH7nmWoqjXqFOp-12">
          <mxGeometry relative="1" as="geometry" />
        </mxCell>
        <mxCell id="SK5lxeOH7nmWoqjXqFOp-10" value="Laura Palmer" style="ellipse;whiteSpace=wrap;html=1;aspect=fixed;" vertex="1" parent="1">
          <mxGeometry x="680" y="430" width="80" height="80" as="geometry" />
        </mxCell>
        <mxCell id="SK5lxeOH7nmWoqjXqFOp-12" value="Swimming" style="whiteSpace=wrap;html=1;aspect=fixed;" vertex="1" parent="1">
          <mxGeometry x="520" y="450" width="80" height="80" as="geometry" />
        </mxCell>
        <mxCell id="SK5lxeOH7nmWoqjXqFOp-18" style="edgeStyle=orthogonalEdgeStyle;rounded=0;orthogonalLoop=1;jettySize=auto;html=1;curved=1;" edge="1" parent="1" source="SK5lxeOH7nmWoqjXqFOp-15" target="SK5lxeOH7nmWoqjXqFOp-16">
          <mxGeometry relative="1" as="geometry" />
        </mxCell>
        <mxCell id="SK5lxeOH7nmWoqjXqFOp-19" style="edgeStyle=orthogonalEdgeStyle;rounded=0;orthogonalLoop=1;jettySize=auto;html=1;entryX=0.5;entryY=0;entryDx=0;entryDy=0;curved=1;" edge="1" parent="1" source="SK5lxeOH7nmWoqjXqFOp-15" target="SK5lxeOH7nmWoqjXqFOp-17">
          <mxGeometry relative="1" as="geometry" />
        </mxCell>
        <mxCell id="SK5lxeOH7nmWoqjXqFOp-15" value="Jane Smith" style="ellipse;whiteSpace=wrap;html=1;aspect=fixed;" vertex="1" parent="1">
          <mxGeometry x="180" y="270" width="80" height="80" as="geometry" />
        </mxCell>
        <mxCell id="SK5lxeOH7nmWoqjXqFOp-16" value="Tennis" style="whiteSpace=wrap;html=1;aspect=fixed;" vertex="1" parent="1">
          <mxGeometry x="210" y="400" width="80" height="80" as="geometry" />
        </mxCell>
        <mxCell id="SK5lxeOH7nmWoqjXqFOp-17" value="Boxing" style="whiteSpace=wrap;html=1;aspect=fixed;" vertex="1" parent="1">
          <mxGeometry x="60" y="350" width="80" height="80" as="geometry" />
        </mxCell>
        <mxCell id="SK5lxeOH7nmWoqjXqFOp-22" style="edgeStyle=orthogonalEdgeStyle;rounded=0;orthogonalLoop=1;jettySize=auto;html=1;entryX=0.5;entryY=0;entryDx=0;entryDy=0;curved=1;" edge="1" parent="1" source="SK5lxeOH7nmWoqjXqFOp-20" target="SK5lxeOH7nmWoqjXqFOp-21">
          <mxGeometry relative="1" as="geometry" />
        </mxCell>
        <mxCell id="SK5lxeOH7nmWoqjXqFOp-20" value="Paul Walker" style="ellipse;whiteSpace=wrap;html=1;aspect=fixed;" vertex="1" parent="1">
          <mxGeometry x="160" y="540" width="80" height="80" as="geometry" />
        </mxCell>
        <mxCell id="SK5lxeOH7nmWoqjXqFOp-21" value="Hockey" style="whiteSpace=wrap;html=1;aspect=fixed;" vertex="1" parent="1">
          <mxGeometry x="40" y="630" width="80" height="80" as="geometry" />
        </mxCell>
        <mxCell id="SK5lxeOH7nmWoqjXqFOp-30" style="edgeStyle=orthogonalEdgeStyle;rounded=0;orthogonalLoop=1;jettySize=auto;html=1;entryX=0;entryY=0.5;entryDx=0;entryDy=0;curved=1;" edge="1" parent="1" source="SK5lxeOH7nmWoqjXqFOp-23" target="SK5lxeOH7nmWoqjXqFOp-25">
          <mxGeometry relative="1" as="geometry" />
        </mxCell>
        <mxCell id="SK5lxeOH7nmWoqjXqFOp-32" style="edgeStyle=orthogonalEdgeStyle;rounded=0;orthogonalLoop=1;jettySize=auto;html=1;entryX=1;entryY=0.5;entryDx=0;entryDy=0;curved=1;" edge="1" parent="1" source="SK5lxeOH7nmWoqjXqFOp-23" target="SK5lxeOH7nmWoqjXqFOp-24">
          <mxGeometry relative="1" as="geometry" />
        </mxCell>
        <mxCell id="SK5lxeOH7nmWoqjXqFOp-33" style="edgeStyle=orthogonalEdgeStyle;rounded=0;orthogonalLoop=1;jettySize=auto;html=1;entryX=0;entryY=0.5;entryDx=0;entryDy=0;curved=1;" edge="1" parent="1" source="SK5lxeOH7nmWoqjXqFOp-23" target="SK5lxeOH7nmWoqjXqFOp-27">
          <mxGeometry relative="1" as="geometry" />
        </mxCell>
        <mxCell id="SK5lxeOH7nmWoqjXqFOp-34" style="edgeStyle=orthogonalEdgeStyle;rounded=0;orthogonalLoop=1;jettySize=auto;html=1;entryX=1;entryY=0.5;entryDx=0;entryDy=0;curved=1;" edge="1" parent="1" source="SK5lxeOH7nmWoqjXqFOp-23" target="SK5lxeOH7nmWoqjXqFOp-26">
          <mxGeometry relative="1" as="geometry" />
        </mxCell>
        <mxCell id="SK5lxeOH7nmWoqjXqFOp-23" value="Chris Green" style="ellipse;whiteSpace=wrap;html=1;aspect=fixed;" vertex="1" parent="1">
          <mxGeometry x="530" y="740" width="80" height="80" as="geometry" />
        </mxCell>
        <mxCell id="SK5lxeOH7nmWoqjXqFOp-24" value="Volleyball" style="whiteSpace=wrap;html=1;aspect=fixed;" vertex="1" parent="1">
          <mxGeometry x="400" y="610" width="80" height="80" as="geometry" />
        </mxCell>
        <mxCell id="SK5lxeOH7nmWoqjXqFOp-25" value="Basketball" style="whiteSpace=wrap;html=1;aspect=fixed;" vertex="1" parent="1">
          <mxGeometry x="660" y="660" width="80" height="80" as="geometry" />
        </mxCell>
        <mxCell id="SK5lxeOH7nmWoqjXqFOp-26" value="Football" style="whiteSpace=wrap;html=1;aspect=fixed;" vertex="1" parent="1">
          <mxGeometry x="370" y="830" width="80" height="80" as="geometry" />
        </mxCell>
        <mxCell id="SK5lxeOH7nmWoqjXqFOp-27" value="Baseball" style="whiteSpace=wrap;html=1;aspect=fixed;" vertex="1" parent="1">
          <mxGeometry x="610" y="880" width="80" height="80" as="geometry" />
        </mxCell>
        <mxCell id="SK5lxeOH7nmWoqjXqFOp-31" style="edgeStyle=orthogonalEdgeStyle;rounded=0;orthogonalLoop=1;jettySize=auto;html=1;curved=1;" edge="1" parent="1" source="SK5lxeOH7nmWoqjXqFOp-28" target="SK5lxeOH7nmWoqjXqFOp-25">
          <mxGeometry relative="1" as="geometry" />
        </mxCell>
        <mxCell id="SK5lxeOH7nmWoqjXqFOp-28" value="David Lee" style="ellipse;whiteSpace=wrap;html=1;aspect=fixed;" vertex="1" parent="1">
          <mxGeometry x="860" y="720" width="80" height="80" as="geometry" />
        </mxCell>
        <mxCell id="SK5lxeOH7nmWoqjXqFOp-35" style="edgeStyle=orthogonalEdgeStyle;rounded=0;orthogonalLoop=1;jettySize=auto;html=1;entryX=0;entryY=0.5;entryDx=0;entryDy=0;curved=1;" edge="1" parent="1" source="SK5lxeOH7nmWoqjXqFOp-29" target="SK5lxeOH7nmWoqjXqFOp-26">
          <mxGeometry relative="1" as="geometry" />
        </mxCell>
        <mxCell id="SK5lxeOH7nmWoqjXqFOp-29" value="John Doe" style="ellipse;whiteSpace=wrap;html=1;aspect=fixed;" vertex="1" parent="1">
          <mxGeometry x="200" y="870" width="80" height="80" as="geometry" />
        </mxCell>
        <mxCell id="SK5lxeOH7nmWoqjXqFOp-36" value="&lt;p style=&quot;margin: 0px; font-variant-numeric: normal; font-variant-east-asian: normal; font-variant-alternates: normal; font-kerning: auto; font-optical-sizing: auto; font-feature-settings: normal; font-variation-settings: normal; font-variant-position: normal; font-stretch: normal; line-height: normal; font-family: &amp;quot;Helvetica Neue&amp;quot;; text-align: start; text-wrap: wrap;&quot; class=&quot;p1&quot;&gt;&lt;font style=&quot;font-size: 36px;&quot;&gt;StudentSports&lt;/font&gt;&lt;/p&gt;" style="text;html=1;align=center;verticalAlign=middle;resizable=0;points=[];autosize=1;strokeColor=none;fillColor=none;" vertex="1" parent="1">
          <mxGeometry x="350" y="-120" width="260" height="60" as="geometry" />
        </mxCell>
        <mxCell id="SK5lxeOH7nmWoqjXqFOp-37" value="" style="ellipse;whiteSpace=wrap;html=1;fillColor=#d5e8d4;strokeColor=#82b366;strokeWidth=0;opacity=40;" vertex="1" parent="1">
          <mxGeometry x="-120" y="-10" width="1220" height="1070" as="geometry" />
        </mxCell>
        <mxCell id="SK5lxeOH7nmWoqjXqFOp-38" value="&lt;p style=&quot;margin: 0px; font-variant-numeric: normal; font-variant-east-asian: normal; font-variant-alternates: normal; font-kerning: auto; font-optical-sizing: auto; font-feature-settings: normal; font-variation-settings: normal; font-variant-position: normal; font-stretch: normal; line-height: normal; font-family: &amp;quot;Helvetica Neue&amp;quot;; text-align: start; text-wrap: wrap;&quot; class=&quot;p1&quot;&gt;&lt;font style=&quot;font-size: 36px;&quot;&gt;StudentSports&lt;/font&gt;&lt;/p&gt;" style="text;html=1;align=center;verticalAlign=middle;resizable=0;points=[];autosize=1;strokeColor=none;fillColor=none;" vertex="1" parent="1">
          <mxGeometry x="1730" y="-130" width="260" height="60" as="geometry" />
        </mxCell>
        <mxCell id="SK5lxeOH7nmWoqjXqFOp-48" style="edgeStyle=orthogonalEdgeStyle;rounded=0;orthogonalLoop=1;jettySize=auto;html=1;entryX=0;entryY=0.5;entryDx=0;entryDy=0;curved=1;" edge="1" parent="1" source="SK5lxeOH7nmWoqjXqFOp-39" target="SK5lxeOH7nmWoqjXqFOp-47">
          <mxGeometry relative="1" as="geometry" />
        </mxCell>
        <mxCell id="SK5lxeOH7nmWoqjXqFOp-39" value="Paul Walker" style="ellipse;whiteSpace=wrap;html=1;aspect=fixed;" vertex="1" parent="1">
          <mxGeometry x="1550" y="150" width="80" height="80" as="geometry" />
        </mxCell>
        <mxCell id="SK5lxeOH7nmWoqjXqFOp-45" style="edgeStyle=orthogonalEdgeStyle;rounded=0;orthogonalLoop=1;jettySize=auto;html=1;entryX=1;entryY=0.5;entryDx=0;entryDy=0;curved=1;" edge="1" parent="1" source="SK5lxeOH7nmWoqjXqFOp-40" target="SK5lxeOH7nmWoqjXqFOp-43">
          <mxGeometry relative="1" as="geometry" />
        </mxCell>
        <mxCell id="SK5lxeOH7nmWoqjXqFOp-46" style="edgeStyle=orthogonalEdgeStyle;rounded=0;orthogonalLoop=1;jettySize=auto;html=1;entryX=0.5;entryY=0;entryDx=0;entryDy=0;curved=1;" edge="1" parent="1" source="SK5lxeOH7nmWoqjXqFOp-40" target="SK5lxeOH7nmWoqjXqFOp-42">
          <mxGeometry relative="1" as="geometry" />
        </mxCell>
        <mxCell id="SK5lxeOH7nmWoqjXqFOp-40" value="Mike Johnson" style="ellipse;whiteSpace=wrap;html=1;aspect=fixed;" vertex="1" parent="1">
          <mxGeometry x="2080" y="110" width="80" height="80" as="geometry" />
        </mxCell>
        <mxCell id="SK5lxeOH7nmWoqjXqFOp-42" value="Gymnastics Gala" style="ellipse;whiteSpace=wrap;html=1;" vertex="1" parent="1">
          <mxGeometry x="2170" y="240" width="120" height="80" as="geometry" />
        </mxCell>
        <mxCell id="SK5lxeOH7nmWoqjXqFOp-43" value="International Cup" style="ellipse;whiteSpace=wrap;html=1;" vertex="1" parent="1">
          <mxGeometry x="1970" width="120" height="80" as="geometry" />
        </mxCell>
        <mxCell id="SK5lxeOH7nmWoqjXqFOp-47" value="Ice Hockey Cup" style="ellipse;whiteSpace=wrap;html=1;" vertex="1" parent="1">
          <mxGeometry x="1680" y="30" width="120" height="80" as="geometry" />
        </mxCell>
        <mxCell id="SK5lxeOH7nmWoqjXqFOp-57" style="edgeStyle=orthogonalEdgeStyle;rounded=0;orthogonalLoop=1;jettySize=auto;html=1;entryX=0.5;entryY=0;entryDx=0;entryDy=0;curved=1;" edge="1" parent="1" source="SK5lxeOH7nmWoqjXqFOp-49" target="SK5lxeOH7nmWoqjXqFOp-52">
          <mxGeometry relative="1" as="geometry" />
        </mxCell>
        <mxCell id="SK5lxeOH7nmWoqjXqFOp-49" value="David Lee" style="ellipse;whiteSpace=wrap;html=1;aspect=fixed;" vertex="1" parent="1">
          <mxGeometry x="1720" y="230" width="80" height="80" as="geometry" />
        </mxCell>
        <mxCell id="SK5lxeOH7nmWoqjXqFOp-58" style="edgeStyle=orthogonalEdgeStyle;rounded=0;orthogonalLoop=1;jettySize=auto;html=1;entryX=0.5;entryY=1;entryDx=0;entryDy=0;curved=1;" edge="1" parent="1" source="SK5lxeOH7nmWoqjXqFOp-50" target="SK5lxeOH7nmWoqjXqFOp-52">
          <mxGeometry relative="1" as="geometry" />
        </mxCell>
        <mxCell id="SK5lxeOH7nmWoqjXqFOp-59" style="edgeStyle=orthogonalEdgeStyle;rounded=0;orthogonalLoop=1;jettySize=auto;html=1;entryX=0;entryY=0.5;entryDx=0;entryDy=0;curved=1;" edge="1" parent="1" source="SK5lxeOH7nmWoqjXqFOp-50" target="SK5lxeOH7nmWoqjXqFOp-55">
          <mxGeometry relative="1" as="geometry" />
        </mxCell>
        <mxCell id="SK5lxeOH7nmWoqjXqFOp-60" style="edgeStyle=orthogonalEdgeStyle;rounded=0;orthogonalLoop=1;jettySize=auto;html=1;entryX=1;entryY=0.5;entryDx=0;entryDy=0;curved=1;" edge="1" parent="1" source="SK5lxeOH7nmWoqjXqFOp-50" target="SK5lxeOH7nmWoqjXqFOp-53">
          <mxGeometry relative="1" as="geometry" />
        </mxCell>
        <mxCell id="SK5lxeOH7nmWoqjXqFOp-61" style="edgeStyle=orthogonalEdgeStyle;rounded=0;orthogonalLoop=1;jettySize=auto;html=1;entryX=0.5;entryY=0;entryDx=0;entryDy=0;curved=1;" edge="1" parent="1" source="SK5lxeOH7nmWoqjXqFOp-50" target="SK5lxeOH7nmWoqjXqFOp-54">
          <mxGeometry relative="1" as="geometry" />
        </mxCell>
        <mxCell id="SK5lxeOH7nmWoqjXqFOp-50" value="Jane Smith" style="ellipse;whiteSpace=wrap;html=1;aspect=fixed;" vertex="1" parent="1">
          <mxGeometry x="2048" y="410" width="80" height="80" as="geometry" />
        </mxCell>
        <mxCell id="SK5lxeOH7nmWoqjXqFOp-62" style="edgeStyle=orthogonalEdgeStyle;rounded=0;orthogonalLoop=1;jettySize=auto;html=1;entryX=0;entryY=0.5;entryDx=0;entryDy=0;curved=1;" edge="1" parent="1" source="SK5lxeOH7nmWoqjXqFOp-51" target="SK5lxeOH7nmWoqjXqFOp-52">
          <mxGeometry relative="1" as="geometry" />
        </mxCell>
        <mxCell id="SK5lxeOH7nmWoqjXqFOp-51" value="John Doe" style="ellipse;whiteSpace=wrap;html=1;aspect=fixed;" vertex="1" parent="1">
          <mxGeometry x="1570" y="440" width="80" height="80" as="geometry" />
        </mxCell>
        <mxCell id="SK5lxeOH7nmWoqjXqFOp-52" value="Regional Tournament" style="ellipse;whiteSpace=wrap;html=1;" vertex="1" parent="1">
          <mxGeometry x="1800" y="360" width="120" height="80" as="geometry" />
        </mxCell>
        <mxCell id="SK5lxeOH7nmWoqjXqFOp-53" value="Boxing Challenge" style="ellipse;whiteSpace=wrap;html=1;" vertex="1" parent="1">
          <mxGeometry x="1920" y="540" width="120" height="80" as="geometry" />
        </mxCell>
        <mxCell id="SK5lxeOH7nmWoqjXqFOp-54" value="Summer Open" style="ellipse;whiteSpace=wrap;html=1;" vertex="1" parent="1">
          <mxGeometry x="2110" y="590" width="120" height="80" as="geometry" />
        </mxCell>
        <mxCell id="SK5lxeOH7nmWoqjXqFOp-55" value="National Meet" style="ellipse;whiteSpace=wrap;html=1;" vertex="1" parent="1">
          <mxGeometry x="2258" y="450" width="120" height="80" as="geometry" />
        </mxCell>
        <mxCell id="SK5lxeOH7nmWoqjXqFOp-67" style="edgeStyle=orthogonalEdgeStyle;rounded=0;orthogonalLoop=1;jettySize=auto;html=1;curved=1;" edge="1" parent="1" source="SK5lxeOH7nmWoqjXqFOp-63" target="SK5lxeOH7nmWoqjXqFOp-64">
          <mxGeometry relative="1" as="geometry" />
        </mxCell>
        <mxCell id="SK5lxeOH7nmWoqjXqFOp-68" style="edgeStyle=orthogonalEdgeStyle;rounded=0;orthogonalLoop=1;jettySize=auto;html=1;entryX=0;entryY=0.5;entryDx=0;entryDy=0;curved=1;" edge="1" parent="1" source="SK5lxeOH7nmWoqjXqFOp-63" target="SK5lxeOH7nmWoqjXqFOp-65">
          <mxGeometry relative="1" as="geometry" />
        </mxCell>
        <mxCell id="SK5lxeOH7nmWoqjXqFOp-69" style="edgeStyle=orthogonalEdgeStyle;rounded=0;orthogonalLoop=1;jettySize=auto;html=1;entryX=0;entryY=0.5;entryDx=0;entryDy=0;curved=1;" edge="1" parent="1" source="SK5lxeOH7nmWoqjXqFOp-63" target="SK5lxeOH7nmWoqjXqFOp-66">
          <mxGeometry relative="1" as="geometry" />
        </mxCell>
        <mxCell id="SK5lxeOH7nmWoqjXqFOp-63" value="Chris Green" style="ellipse;whiteSpace=wrap;html=1;aspect=fixed;" vertex="1" parent="1">
          <mxGeometry x="1690" y="710" width="80" height="80" as="geometry" />
        </mxCell>
        <mxCell id="SK5lxeOH7nmWoqjXqFOp-64" value="World Series" style="ellipse;whiteSpace=wrap;html=1;" vertex="1" parent="1">
          <mxGeometry x="1650" y="550" width="120" height="80" as="geometry" />
        </mxCell>
        <mxCell id="SK5lxeOH7nmWoqjXqFOp-65" value="City Championship" style="ellipse;whiteSpace=wrap;html=1;" vertex="1" parent="1">
          <mxGeometry x="1840" y="690" width="120" height="80" as="geometry" />
        </mxCell>
        <mxCell id="SK5lxeOH7nmWoqjXqFOp-66" value="State Finals" style="ellipse;whiteSpace=wrap;html=1;" vertex="1" parent="1">
          <mxGeometry x="1880" y="850" width="120" height="80" as="geometry" />
        </mxCell>
        <mxCell id="SK5lxeOH7nmWoqjXqFOp-71" value="" style="ellipse;whiteSpace=wrap;html=1;fillColor=#dae8fc;strokeColor=#6c8ebf;opacity=40;strokeWidth=0;" vertex="1" parent="1">
          <mxGeometry x="1390" y="-50" width="1130" height="1010" as="geometry" />
        </mxCell>
      </root>
    </mxGraphModel>
  </diagram>
</mxfile>
